<svg width="14" height="14" viewBox="0 0 14 14" fill="none" xmlns="http://www.w3.org/2000/svg">
<g clip-path="url(#clip0_22583_106103)">
<path d="M2.9832 6.66445L8.8078 0.839956C8.94251 0.705134 9.12235 0.630859 9.3141 0.630859C9.50585 0.630859 9.68569 0.705134 9.8204 0.839956L10.2493 1.26879C10.5285 1.54823 10.5285 2.00239 10.2493 2.28139L5.35829 7.17245L10.2548 12.0689C10.3895 12.2038 10.4639 12.3835 10.4639 12.5751C10.4639 12.767 10.3895 12.9467 10.2548 13.0816L9.82583 13.5104C9.69101 13.6452 9.51128 13.7195 9.31953 13.7195C9.12778 13.7195 8.94794 13.6452 8.81323 13.5104L2.9832 7.68056C2.84817 7.54532 2.774 7.36474 2.77442 7.17277C2.774 6.98006 2.84817 6.79959 2.9832 6.66445Z" fill="#008DD1"/>
</g>
<defs>
<clipPath id="clip0_22583_106103">
<rect width="13.0886" height="13.0886" fill="white" transform="matrix(-1 0 0 1 13.1633 0.630859)"/>
</clipPath>
</defs>
</svg>
