<svg width="15" height="14" viewBox="0 0 15 14" fill="none" xmlns="http://www.w3.org/2000/svg">
<g clip-path="url(#clip0_22583_106102)">
<path d="M11.1047 6.66445L5.28009 0.839956C5.14538 0.705134 4.96554 0.630859 4.77379 0.630859C4.58204 0.630859 4.4022 0.705134 4.26749 0.839956L3.83855 1.26879C3.55943 1.54823 3.55943 2.00239 3.83855 2.28139L8.7296 7.17245L3.83312 12.0689C3.6984 12.2038 3.62402 12.3835 3.62402 12.5751C3.62402 12.767 3.6984 12.9467 3.83312 13.0816L4.26206 13.5104C4.39688 13.6452 4.57661 13.7195 4.76836 13.7195C4.96012 13.7195 5.13995 13.6452 5.27466 13.5104L11.1047 7.68056C11.2397 7.54532 11.3139 7.36474 11.3135 7.17277C11.3139 6.98006 11.2397 6.79959 11.1047 6.66445Z" fill="#008DD1"/>
</g>
<defs>
<clipPath id="clip0_22583_106102">
<rect width="13.0886" height="13.0886" fill="white" transform="translate(0.924561 0.630859)"/>
</clipPath>
</defs>
</svg>
