<?xml version="1.0" encoding="UTF-8"?>
<svg xmlns="http://www.w3.org/2000/svg" xmlns:xlink="http://www.w3.org/1999/xlink" width="250px" height="200px" viewBox="0 0 250 200" version="1.1">
<g id="surface1">
<path style=" stroke:none;fill-rule:nonzero;fill:rgb(62.352941%,65.882353%,70.980392%);fill-opacity:1;" d="M 125.199219 0 C 121.871094 0 119.167969 2.769531 119.167969 6.1875 L 119.167969 22.683594 C 119.167969 26.101562 121.871094 28.871094 125.199219 28.871094 C 128.527344 28.871094 131.230469 26.101562 131.230469 22.683594 L 131.230469 6.1875 C 131.230469 2.769531 128.527344 0 125.199219 0 Z M 125.199219 0 "/>
<path style=" stroke:none;fill-rule:nonzero;fill:rgb(62.352941%,65.882353%,70.980392%);fill-opacity:1;" d="M 91.019531 63.929688 C 91.019531 60.515625 88.316406 57.742188 84.984375 57.742188 L 68.898438 57.742188 C 65.570312 57.742188 62.867188 60.515625 62.867188 63.929688 C 62.867188 67.347656 65.570312 70.117188 68.898438 70.117188 L 84.984375 70.117188 C 88.316406 70.117188 91.019531 67.347656 91.019531 63.929688 Z M 91.019531 63.929688 "/>
<path style=" stroke:none;fill-rule:nonzero;fill:rgb(62.352941%,65.882353%,70.980392%);fill-opacity:1;" d="M 92.496094 88.726562 L 81.125 100.386719 C 78.769531 102.804688 78.769531 106.722656 81.125 109.140625 C 82.304688 110.351562 83.84375 110.949219 85.386719 110.949219 C 86.9375 110.949219 88.480469 110.351562 89.65625 109.140625 L 101.03125 97.472656 C 103.382812 95.054688 103.382812 91.144531 101.03125 88.726562 C 98.671875 86.308594 94.855469 86.308594 92.496094 88.726562 Z M 92.496094 88.726562 "/>
<path style=" stroke:none;fill-rule:nonzero;fill:rgb(62.352941%,65.882353%,70.980392%);fill-opacity:1;" d="M 125.199219 98.992188 C 121.871094 98.992188 119.167969 101.761719 119.167969 105.179688 L 119.167969 121.675781 C 119.167969 125.097656 121.871094 127.863281 125.199219 127.863281 C 128.527344 127.863281 131.230469 125.089844 131.230469 121.675781 L 131.230469 105.179688 C 131.230469 101.761719 128.527344 98.992188 125.199219 98.992188 Z M 125.199219 98.992188 "/>
<path style=" stroke:none;fill-rule:nonzero;fill:rgb(62.352941%,65.882353%,70.980392%);fill-opacity:1;" d="M 157.902344 88.726562 C 155.546875 86.308594 151.726562 86.308594 149.371094 88.726562 C 147.015625 91.144531 147.015625 95.054688 149.371094 97.472656 L 160.746094 109.140625 C 161.921875 110.351562 163.464844 110.949219 165.011719 110.949219 C 166.554688 110.949219 168.097656 110.351562 169.273438 109.140625 C 171.632812 106.722656 171.632812 102.804688 169.273438 100.386719 Z M 157.902344 88.726562 "/>
<path style=" stroke:none;fill-rule:nonzero;fill:rgb(62.352941%,65.882353%,70.980392%);fill-opacity:1;" d="M 181.496094 57.742188 L 165.410156 57.742188 C 162.082031 57.742188 159.378906 60.515625 159.378906 63.929688 C 159.378906 67.347656 162.082031 70.117188 165.410156 70.117188 L 181.496094 70.117188 C 184.832031 70.117188 187.527344 67.347656 187.527344 63.929688 C 187.527344 60.515625 184.832031 57.742188 181.496094 57.742188 Z M 181.496094 57.742188 "/>
<path style=" stroke:none;fill-rule:nonzero;fill:rgb(62.352941%,65.882353%,70.980392%);fill-opacity:1;" d="M 153.636719 40.949219 C 155.179688 40.949219 156.722656 40.351562 157.902344 39.140625 L 169.273438 27.476562 C 171.632812 25.058594 171.632812 21.144531 169.273438 18.726562 C 166.921875 16.308594 163.101562 16.308594 160.746094 18.726562 L 149.371094 30.390625 C 147.015625 32.808594 147.015625 36.722656 149.371094 39.140625 C 150.550781 40.351562 152.09375 40.949219 153.636719 40.949219 Z M 153.636719 40.949219 "/>
<path style=" stroke:none;fill-rule:nonzero;fill:rgb(62.352941%,65.882353%,70.980392%);fill-opacity:1;" d="M 18.925781 172.347656 L 7.085938 172.347656 L 7.085938 179.339844 L 17.8125 179.339844 L 17.8125 182.972656 L 7.085938 182.972656 L 7.085938 192.898438 L 3.101562 192.898438 L 3.101562 168.679688 L 18.960938 168.679688 Z M 29.320312 174.355469 C 35.628906 174.355469 38.191406 178.574219 37.71875 185.21875 L 24.160156 185.21875 C 24.769531 188.054688 26.894531 189.820312 29.722656 189.820312 C 31.683594 189.820312 33.46875 189.058594 34.785156 187.675781 L 36.84375 189.921875 C 35.089844 191.898438 32.527344 193.039062 29.417969 193.039062 C 23.886719 193.039062 20.246094 189.269531 20.246094 183.730469 C 20.246094 178.160156 23.992188 174.390625 29.320312 174.355469 Z M 24.09375 182.3125 L 34.347656 182.3125 C 34.214844 179.339844 32.289062 177.539062 29.351562 177.539062 C 26.523438 177.539062 24.53125 179.375 24.09375 182.3125 Z M 50.605469 188.679688 L 51.582031 191.726562 C 50.164062 192.585938 48.679688 193.070312 47.164062 193.070312 C 44.460938 193.070312 42.136719 191.480469 42.136719 187.710938 L 42.136719 178.160156 L 39.605469 178.160156 L 39.605469 175.183594 L 42.136719 175.183594 L 42.136719 170.136719 L 45.980469 170.136719 L 45.980469 175.183594 L 51.273438 175.183594 L 51.273438 178.160156 L 45.980469 178.160156 L 45.980469 186.980469 C 45.980469 188.886719 46.6875 189.472656 47.902344 189.472656 C 48.710938 189.472656 49.554688 189.199219 50.605469 188.679688 Z M 61.984375 174.355469 C 65.21875 174.355469 67.75 175.425781 69.402344 177.367188 L 67.277344 179.925781 C 66.027344 178.609375 64.308594 177.816406 62.152344 177.851562 C 59.046875 177.851562 56.824219 180.234375 56.824219 183.730469 C 56.824219 187.226562 59.046875 189.617188 62.152344 189.617188 C 64.410156 189.617188 66.234375 188.851562 67.449219 187.398438 L 69.609375 189.617188 C 67.988281 191.792969 65.390625 193.039062 61.984375 193.039062 C 56.652344 193.039062 52.941406 189.269531 52.941406 183.730469 C 52.941406 178.160156 56.652344 174.355469 61.984375 174.355469 Z M 84.023438 174.355469 C 88.207031 174.355469 90.703125 177.054688 90.703125 181.449219 L 90.703125 192.898438 L 86.824219 192.898438 L 86.824219 182.554688 C 86.824219 179.785156 85.203125 178.089844 82.507812 178.089844 C 79.300781 178.125 77.382812 180.582031 77.382812 183.832031 L 77.382812 192.898438 L 73.503906 192.898438 L 73.503906 167.226562 L 77.382812 167.226562 L 77.382812 178.089844 C 78.664062 175.496094 80.953125 174.355469 84.023438 174.355469 Z M 97.484375 166.8125 C 98.765625 166.8125 99.742188 167.816406 99.742188 169.234375 C 99.742188 170.621094 98.765625 171.617188 97.484375 171.617188 C 96.203125 171.617188 95.21875 170.621094 95.21875 169.234375 C 95.21875 167.816406 96.203125 166.8125 97.484375 166.8125 Z M 99.402344 192.898438 L 95.558594 192.898438 L 95.558594 174.492188 L 99.402344 174.492188 Z M 115.300781 174.355469 C 119.484375 174.355469 121.980469 177.054688 121.980469 181.449219 L 121.980469 192.898438 L 118.097656 192.898438 L 118.097656 182.554688 C 118.097656 179.785156 116.484375 178.089844 113.78125 178.089844 C 110.8125 178.125 108.957031 180.234375 108.6875 183.109375 L 108.6875 192.898438 L 104.808594 192.898438 L 104.808594 174.492188 L 108.6875 174.492188 L 108.6875 178.023438 C 109.96875 175.460938 112.265625 174.355469 115.300781 174.355469 Z M 143.03125 174.492188 L 143.03125 191.097656 C 143.03125 196.394531 139.355469 199.714844 133.722656 199.714844 C 130.921875 199.714844 128.457031 198.8125 126.265625 197.296875 L 127.917969 194.421875 C 129.605469 195.699219 131.359375 196.429688 133.550781 196.429688 C 136.957031 196.429688 139.1875 194.390625 139.1875 191.207031 L 139.1875 188.886719 C 137.972656 190.894531 135.949219 192 133.25 192 C 128.390625 192 125.15625 188.402344 125.15625 183.109375 C 125.15625 177.917969 128.355469 174.390625 133.113281 174.355469 C 135.882812 174.320312 137.9375 175.460938 139.1875 177.46875 L 139.1875 174.492188 Z M 134.023438 188.886719 C 137.0625 188.886719 139.1875 186.535156 139.1875 183.210938 C 139.1875 179.894531 137.0625 177.570312 134.023438 177.570312 C 130.953125 177.570312 128.828125 179.925781 128.796875 183.210938 C 128.828125 186.535156 130.921875 188.886719 134.023438 188.886719 Z M 173.539062 167.226562 L 173.539062 192.898438 L 169.660156 192.898438 L 169.660156 189.753906 C 168.378906 191.898438 166.222656 193.070312 163.351562 193.070312 C 158.191406 193.070312 154.75 189.234375 154.75 183.628906 C 154.75 178.089844 158.226562 174.320312 163.285156 174.320312 C 166.1875 174.320312 168.347656 175.53125 169.660156 177.675781 L 169.660156 167.226562 Z M 164.164062 189.753906 C 167.402344 189.753906 169.660156 187.261719 169.660156 183.765625 C 169.660156 180.199219 167.402344 177.707031 164.164062 177.707031 C 160.925781 177.707031 158.664062 180.234375 158.628906 183.765625 C 158.664062 187.261719 160.894531 189.753906 164.164062 189.753906 Z M 189.859375 192.898438 L 189.859375 190.652344 C 188.578125 192.277344 186.519531 193.070312 183.921875 193.070312 C 180.035156 193.070312 177.613281 190.613281 177.613281 187.363281 C 177.613281 184.011719 180.074219 181.859375 184.394531 181.824219 L 189.820312 181.824219 L 189.820312 181.273438 C 189.820312 178.957031 188.371094 177.570312 185.535156 177.570312 C 183.816406 177.570312 182.027344 178.195312 180.242188 179.441406 L 178.65625 176.671875 C 181.152344 175.148438 182.972656 174.355469 186.378906 174.355469 C 191 174.355469 193.597656 176.773438 193.632812 180.824219 L 193.671875 192.898438 Z M 184.726562 189.921875 C 187.496094 189.921875 189.621094 188.433594 189.820312 186.429688 L 189.820312 184.734375 L 184.964844 184.734375 C 182.433594 184.734375 181.253906 185.425781 181.253906 187.191406 C 181.253906 188.851562 182.566406 189.921875 184.726562 189.921875 Z M 207.695312 188.679688 L 208.671875 191.726562 C 207.257812 192.585938 205.777344 193.070312 204.257812 193.070312 C 201.558594 193.070312 199.230469 191.480469 199.230469 187.710938 L 199.230469 178.160156 L 196.699219 178.160156 L 196.699219 175.183594 L 199.230469 175.183594 L 199.230469 170.136719 L 203.074219 170.136719 L 203.074219 175.183594 L 208.375 175.183594 L 208.375 178.160156 L 203.074219 178.160156 L 203.074219 186.980469 C 203.074219 188.886719 203.785156 189.472656 205 189.472656 C 205.8125 189.472656 206.652344 189.199219 207.695312 188.679688 Z M 222.683594 192.898438 L 222.683594 190.652344 C 221.402344 192.277344 219.34375 193.070312 216.746094 193.070312 C 212.867188 193.070312 210.4375 190.613281 210.4375 187.363281 C 210.4375 184.011719 212.902344 181.859375 217.21875 181.824219 L 222.652344 181.824219 L 222.652344 181.273438 C 222.652344 178.957031 221.195312 177.570312 218.367188 177.570312 C 216.648438 177.570312 214.855469 178.195312 213.066406 179.441406 L 211.480469 176.671875 C 213.976562 175.148438 215.804688 174.355469 219.210938 174.355469 C 223.832031 174.355469 226.429688 176.773438 226.460938 180.824219 L 226.496094 192.898438 Z M 217.558594 189.921875 C 220.320312 189.921875 222.445312 188.433594 222.652344 186.429688 L 222.652344 184.734375 L 217.789062 184.734375 C 215.261719 184.734375 214.082031 185.425781 214.082031 187.191406 C 214.082031 188.851562 215.398438 189.921875 217.558594 189.921875 Z M 232.160156 188.644531 C 233.375 188.644531 234.285156 189.574219 234.285156 190.894531 C 234.285156 192.246094 233.375 193.207031 232.160156 193.207031 C 230.945312 193.207031 230.035156 192.246094 230.035156 190.894531 C 230.035156 189.574219 230.945312 188.644531 232.160156 188.644531 Z M 239.167969 188.644531 C 240.382812 188.644531 241.292969 189.574219 241.292969 190.894531 C 241.292969 192.246094 240.382812 193.207031 239.167969 193.207031 C 237.953125 193.207031 237.042969 192.246094 237.042969 190.894531 C 237.042969 189.574219 237.953125 188.644531 239.167969 188.644531 Z M 246.175781 188.644531 C 247.390625 188.644531 248.300781 189.574219 248.300781 190.894531 C 248.300781 192.246094 247.390625 193.207031 246.175781 193.207031 C 244.960938 193.207031 244.050781 192.246094 244.050781 190.894531 C 244.050781 189.574219 244.960938 188.644531 246.175781 188.644531 Z M 246.175781 188.644531 "/>
</g>
</svg>
