<svg width="16" height="16" viewBox="0 0 16 16" fill="none" xmlns="http://www.w3.org/2000/svg">
<path d="M0 16V0H8V3.55556H16V16H0ZM1.6 14.2222H3.2V12.4444H1.6V14.2222ZM1.6 10.6667H3.2V8.88889H1.6V10.6667ZM1.6 7.11111H3.2V5.33333H1.6V7.11111ZM1.6 3.55556H3.2V1.77778H1.6V3.55556ZM4.8 14.2222H6.4V12.4444H4.8V14.2222ZM4.8 10.6667H6.4V8.88889H4.8V10.6667ZM4.8 7.11111H6.4V5.33333H4.8V7.11111ZM4.8 3.55556H6.4V1.77778H4.8V3.55556ZM8 14.2222H14.4V5.33333H8V7.11111H9.6V8.88889H8V10.6667H9.6V12.4444H8V14.2222ZM11.2 8.88889V7.11111H12.8V8.88889H11.2ZM11.2 12.4444V10.6667H12.8V12.4444H11.2Z" fill="#1C2A3A"/>
</svg>
