<svg width="163" height="137" viewBox="0 0 163 137" fill="none" xmlns="http://www.w3.org/2000/svg">
<path opacity="0.5" d="M14.0933 135V121H11.7733V131.06L4.27328 121H1.95328V135H4.31328V124.96L11.7733 135H14.0933ZM22.2131 124.28C18.9131 124.28 16.6531 126.46 16.6531 129.68C16.6531 132.88 18.9131 135.08 22.2131 135.08C25.4931 135.08 27.7531 132.88 27.7531 129.68C27.7531 126.46 25.4931 124.28 22.2131 124.28ZM22.2131 126.26C24.1131 126.26 25.4531 127.66 25.4531 129.7C25.4531 131.76 24.1131 133.16 22.2131 133.16C20.2931 133.16 18.9531 131.76 18.9531 129.7C18.9531 127.66 20.2931 126.26 22.2131 126.26ZM35.4494 121V135H41.1294C45.3694 135 48.4294 132.04 48.4294 128C48.4294 123.94 45.3894 121 41.1894 121H35.4494ZM37.8094 123.12H41.1494C43.9094 123.12 46.0494 125.16 46.0494 128.02C46.0494 130.86 43.9694 132.88 41.2494 132.88H37.8094V123.12ZM57.1972 135H59.4572L59.4372 128.02C59.4172 125.68 57.8772 124.28 55.1372 124.28C53.1172 124.28 52.0372 124.74 50.5572 125.62L51.4972 127.22C52.5572 126.5 53.6172 126.14 54.6372 126.14C56.3172 126.14 57.1772 126.94 57.1772 128.28V128.6H53.9572C51.3972 128.62 49.9372 129.86 49.9372 131.8C49.9372 133.68 51.3772 135.1 53.6772 135.1C55.2172 135.1 56.4372 134.64 57.1972 133.7V135ZM54.1572 133.28C52.8772 133.28 52.0972 132.66 52.0972 131.7C52.0972 130.68 52.7972 130.28 54.2972 130.28H57.1772V131.26C57.0572 132.42 55.7972 133.28 54.1572 133.28ZM67.9759 132.56C67.3559 132.86 66.8559 133.02 66.3759 133.02C65.6559 133.02 65.2359 132.68 65.2359 131.58V126.48H68.3759V124.76H65.2359V121.84H62.9559V124.76H61.4559V126.48H62.9559V132C62.9559 134.18 64.3359 135.1 65.9359 135.1C66.8359 135.1 67.7159 134.82 68.5559 134.32L67.9759 132.56ZM77.0605 135H79.3205L79.3005 128.02C79.2805 125.68 77.7405 124.28 75.0005 124.28C72.9805 124.28 71.9005 124.74 70.4205 125.62L71.3605 127.22C72.4205 126.5 73.4805 126.14 74.5005 126.14C76.1805 126.14 77.0405 126.94 77.0405 128.28V128.6H73.8205C71.2605 128.62 69.8005 129.86 69.8005 131.8C69.8005 133.68 71.2405 135.1 73.5405 135.1C75.0805 135.1 76.3005 134.64 77.0605 133.7V135ZM74.0205 133.28C72.7405 133.28 71.9605 132.66 71.9605 131.7C71.9605 130.68 72.6605 130.28 74.1605 130.28H77.0405V131.26C76.9205 132.42 75.6605 133.28 74.0205 133.28ZM97.0755 123.12L97.0955 121H87.6955V135H90.0555V129.26H96.4155V127.16H90.0555V123.12H97.0755ZM103.619 124.28C100.319 124.28 98.0594 126.46 98.0594 129.68C98.0594 132.88 100.319 135.08 103.619 135.08C106.899 135.08 109.159 132.88 109.159 129.68C109.159 126.46 106.899 124.28 103.619 124.28ZM103.619 126.26C105.519 126.26 106.859 127.66 106.859 129.7C106.859 131.76 105.519 133.16 103.619 133.16C101.699 133.16 100.359 131.76 100.359 129.7C100.359 127.66 101.699 126.26 103.619 126.26ZM121.219 124.36H118.919V129.6C118.919 131.46 117.839 132.88 115.999 132.92C114.459 132.92 113.519 131.94 113.519 130.34V124.36H111.219V130.98C111.219 133.52 112.679 135.08 115.119 135.08C116.859 135.06 118.199 134.4 118.919 132.92V135H121.219V124.36ZM130.846 124.28C129.046 124.28 127.686 124.92 126.926 126.4V124.36H124.626V135H126.926V129.34C127.086 127.68 128.186 126.46 129.946 126.44C131.546 126.44 132.506 127.42 132.506 129.02V135H134.806V128.38C134.806 125.84 133.326 124.28 130.846 124.28ZM148.028 120.16H145.728V126.2C144.948 124.96 143.668 124.26 141.948 124.26C138.948 124.26 136.888 126.44 136.888 129.64C136.888 132.88 138.928 135.1 141.988 135.1C143.688 135.1 144.968 134.42 145.728 133.18V135H148.028V120.16ZM142.468 133.18C140.528 133.18 139.208 131.74 139.188 129.72C139.208 127.68 140.548 126.22 142.468 126.22C144.388 126.22 145.728 127.66 145.728 129.72C145.728 131.74 144.388 133.18 142.468 133.18ZM152 132.54C151.28 132.54 150.74 133.08 150.74 133.84C150.74 134.62 151.28 135.18 152 135.18C152.72 135.18 153.26 134.62 153.26 133.84C153.26 133.08 152.72 132.54 152 132.54ZM156.356 132.54C155.636 132.54 155.096 133.08 155.096 133.84C155.096 134.62 155.636 135.18 156.356 135.18C157.076 135.18 157.616 134.62 157.616 133.84C157.616 133.08 157.076 132.54 156.356 132.54ZM160.711 132.54C159.991 132.54 159.451 133.08 159.451 133.84C159.451 134.62 159.991 135.18 160.711 135.18C161.431 135.18 161.971 134.62 161.971 133.84C161.971 133.08 161.431 132.54 160.711 132.54Z" fill="#123455"/>
<g opacity="0.5">
<path fill-rule="evenodd" clip-rule="evenodd" d="M124.918 57.1028L115.702 85.7439C115.344 86.5812 114.841 86.9334 114.639 86.9334H113.646H41.5583C41.31 86.9334 40.9982 86.6043 40.8076 86.3271C40.1898 85.4205 39.8375 83.8152 40.5478 81.9155L48.8514 53.4361C49.2267 52.3852 49.8504 51.9405 50.0986 51.9405H123.809C124.08 51.9405 124.415 52.287 124.635 52.6046C125.276 53.5516 125.645 55.2262 124.918 57.1028ZM38.1168 18.5991H64.4365C64.8407 18.5991 65.2276 18.7666 65.5048 19.0726L73.2425 27.6303C75.148 29.7322 77.8678 30.939 80.7146 30.9506L113.646 31.0025C114.449 31.0025 115.101 31.6608 115.101 32.4635V43.2789H50.0987C45.9469 43.2789 42.257 46.1315 40.6113 50.7683L36.6616 64.344V20.0543C36.6616 19.2516 37.3141 18.5991 38.1168 18.5991ZM131.789 47.7252C129.866 44.9015 126.962 43.2789 123.809 43.2789H123.763V32.4635C123.763 26.8854 119.224 22.3409 113.652 22.3409L80.7376 22.289C80.3161 22.289 79.935 22.1157 79.6578 21.8155L71.9259 13.2693C70.0204 11.1501 67.2891 9.9375 64.4365 9.9375H38.1168C32.5387 9.9375 28 14.4762 28 20.0543V85.4783C28 91.0564 32.5387 95.595 38.1168 95.595H41.5583H113.646H114.639C118.583 95.595 122.181 92.933 123.809 88.8159L133.071 60.0131C134.671 55.9422 134.18 51.2303 131.789 47.7252Z" fill="#123455"/>
</g>
</svg>
