<svg width="16" height="16" viewBox="0 0 16 16" fill="none" xmlns="http://www.w3.org/2000/svg">
<path d="M9.45455 9C8.84848 9 8.33333 8.70833 7.90909 8.125C7.48485 7.54167 7.27273 6.83333 7.27273 6C7.27273 5.16667 7.48485 4.45833 7.90909 3.875C8.33333 3.29167 8.84848 3 9.45455 3C10.0606 3 10.5758 3.29167 11 3.875C11.4242 4.45833 11.6364 5.16667 11.6364 6C11.6364 6.83333 11.4242 7.54167 11 8.125C10.5758 8.70833 10.0606 9 9.45455 9ZM4.36364 12C3.96364 12 3.62121 11.8042 3.33636 11.4125C3.05152 11.0208 2.90909 10.55 2.90909 10V2C2.90909 1.45 3.05152 0.979167 3.33636 0.5875C3.62121 0.195833 3.96364 0 4.36364 0H14.5455C14.9455 0 15.2879 0.195833 15.5727 0.5875C15.8576 0.979167 16 1.45 16 2V10C16 10.55 15.8576 11.0208 15.5727 11.4125C15.2879 11.8042 14.9455 12 14.5455 12H4.36364ZM5.81818 10H13.0909C13.0909 9.45 13.2333 8.97917 13.5182 8.5875C13.803 8.19583 14.1455 8 14.5455 8V4C14.1455 4 13.803 3.80417 13.5182 3.4125C13.2333 3.02083 13.0909 2.55 13.0909 2H5.81818C5.81818 2.55 5.67576 3.02083 5.39091 3.4125C5.10606 3.80417 4.76364 4 4.36364 4V8C4.76364 8 5.10606 8.19583 5.39091 8.5875C5.67576 8.97917 5.81818 9.45 5.81818 10ZM13.8182 16H1.45455C1.05455 16 0.712121 15.8042 0.427273 15.4125C0.142424 15.0208 0 14.55 0 14V3H1.45455V14H13.8182V16Z" fill="#1C2A3A"/>
</svg>
